<?xml version="1.0" standalone="no"?>
<svg xmlns:xlink="http://www.w3.org/1999/xlink" id="wave" style="transform:rotate(0deg); transition: 0.3s" viewBox="0 0 1440 490" version="1.1" xmlns="http://www.w3.org/2000/svg"><defs><linearGradient id="sw-gradient-0" x1="0" x2="0" y1="1" y2="0"><stop stop-color="rgba(255, 150, 72, 1)" offset="0%"/><stop stop-color="rgba(255, 214, 160, 1)" offset="100%"/></linearGradient></defs><path style="transform:translate(0, 0px); opacity:1" fill="url(#sw-gradient-0)" d="M0,147L80,155.2C160,163,320,180,480,163.3C640,147,800,98,960,73.5C1120,49,1280,49,1440,114.3C1600,180,1760,310,1920,351.2C2080,392,2240,343,2400,277.7C2560,212,2720,131,2880,122.5C3040,114,3200,180,3360,171.5C3520,163,3680,82,3840,89.8C4000,98,4160,196,4320,212.3C4480,229,4640,163,4800,114.3C4960,65,5120,33,5280,65.3C5440,98,5600,196,5760,212.3C5920,229,6080,163,6240,122.5C6400,82,6560,65,6720,106.2C6880,147,7040,245,7200,310.3C7360,376,7520,408,7680,383.8C7840,359,8000,278,8160,261.3C8320,245,8480,294,8640,261.3C8800,229,8960,114,9120,73.5C9280,33,9440,65,9600,73.5C9760,82,9920,65,10080,49C10240,33,10400,16,10560,73.5C10720,131,10880,261,11040,326.7C11200,392,11360,392,11440,392L11520,392L11520,490L11440,490C11360,490,11200,490,11040,490C10880,490,10720,490,10560,490C10400,490,10240,490,10080,490C9920,490,9760,490,9600,490C9440,490,9280,490,9120,490C8960,490,8800,490,8640,490C8480,490,8320,490,8160,490C8000,490,7840,490,7680,490C7520,490,7360,490,7200,490C7040,490,6880,490,6720,490C6560,490,6400,490,6240,490C6080,490,5920,490,5760,490C5600,490,5440,490,5280,490C5120,490,4960,490,4800,490C4640,490,4480,490,4320,490C4160,490,4000,490,3840,490C3680,490,3520,490,3360,490C3200,490,3040,490,2880,490C2720,490,2560,490,2400,490C2240,490,2080,490,1920,490C1760,490,1600,490,1440,490C1280,490,1120,490,960,490C800,490,640,490,480,490C320,490,160,490,80,490L0,490Z"/></svg>